# xmcd CD database file
#
# Track frame offsets:
#	150
#	16010
#	39038
#	54098
#	70779
#	90901
#	101756
#	116651
#	135265
#	151879
#	168271
#	179844
#
# Disc length: 2587 seconds
#
# Revision: 0
# Processed by: cddbd v1.4PL0 Copyright (c) Steve Scherf et al.
# Submitted via: CDex 1.50beta10
#
DISCID=830a190c
DTITLE=Darrel Nulisch - Times Like These
DYEAR=2003
DGENRE=Blues
TTITLE0=Lonely Man
TTITLE1=Handle It With Care
TTITLE2=Something Else
TTITLE3=Don't Look Back
TTITLE4=Good Thing
TTITLE5=Running Out
TTITLE6=The Snow Is Falling
TTITLE7=Times Like These
TTITLE8=Breaking Out
TTITLE9=I Found Love
TTITLE10=That's A Good Idea
TTITLE11=Right Here At Home
EXTD=YEAR: 2003
EXTT0=
EXTT1=
EXTT2=
EXTT3=
EXTT4=
EXTT5=
EXTT6=
EXTT7=
EXTT8=
EXTT9=
EXTT10=
EXTT11=
PLAYORDER=
